<svg class="animated" id="freepik_stories-retro-computer" xmlns="http://www.w3.org/2000/svg" viewBox="0 0 500 500" version="1.1" xmlns:xlink="http://www.w3.org/1999/xlink" xmlns:svgjs="http://svgjs.com/svgjs"><style>svg#freepik_stories-retro-computer:not(.animated) .animable {opacity: 0;}svg#freepik_stories-retro-computer.animated #freepik--Tab--inject-187 {animation: 1.5s Infinite  linear shake;animation-delay: 0s;}            @keyframes shake {                10%, 90% {                    transform: translate3d(-1px, 0, 0);                  }                  20%, 80% {                    transform: translate3d(2px, 0, 0);                  }                  30%, 50%, 70% {                    transform: translate3d(-4px, 0, 0);                  }                  40%, 60% {                    transform: translate3d(4px, 0, 0);                  }            }        .animator-hidden { display: none; }</style><g id="freepik--background-complete--inject-187" class="animable animator-hidden" style="transform-origin: 250px 217.834px;"><g id="elns11pb91nqh" class="animable" style="transform-origin: 250px 217.834px;"><g id="eleha7gd5iert" class="animable" style="transform-origin: 250px 206.056px;"><g id="el7bfr2jybx7j" class="animable" style="transform-origin: 249.333px 175.397px;"><path d="M443.92,312.896h-180.746c-3.232,0-5.862-2.63-5.862-5.862V43.76c0-3.232,2.63-5.862,5.862-5.862h180.746c3.232,0,5.862,2.629,5.862,5.862V307.033c0,3.233-2.63,5.862-5.862,5.862ZM263.174,38.148c-3.095,0-5.612,2.518-5.612,5.612V307.033c0,3.095,2.518,5.612,5.612,5.612h180.746c3.095,0,5.612-2.518,5.612-5.612V43.76c0-3.094-2.518-5.612-5.612-5.612h-180.746Z" style="fill: rgb(224, 224, 224); transform-origin: 353.547px 175.397px;" id="elqj0wrutfg6" class="animable"></path><path d="M235.493,312.896H54.746c-3.232,0-5.862-2.63-5.862-5.862V43.76c0-3.232,2.629-5.862,5.862-5.862H235.493c3.232,0,5.862,2.629,5.862,5.862V307.033c0,3.233-2.63,5.862-5.862,5.862ZM54.746,38.148c-3.094,0-5.612,2.518-5.612,5.612V307.033c0,3.095,2.518,5.612,5.612,5.612H235.493c3.095,0,5.612-2.518,5.612-5.612V43.76c0-3.094-2.518-5.612-5.612-5.612H54.746Z" style="fill: rgb(224, 224, 224); transform-origin: 145.119px 175.397px;" id="elnjp4jhv2tmg" class="animable"></path></g><rect x="0" y="373.965" width="500" height=".25" style="fill: rgb(224, 224, 224); transform-origin: 250px 374.09px;" id="el7m2tgp8ov65" class="animable"></rect></g><rect x="51.672" y="388.23" width="16.06" height=".25" style="fill: rgb(224, 224, 224); transform-origin: 59.702px 388.355px;" id="elxc2ta9ywjer" class="animable"></rect><rect x="170.352" y="385.52" width="53.53" height=".25" style="fill: rgb(224, 224, 224); transform-origin: 197.117px 385.645px;" id="elh4ngpd8ohr" class="animable"></rect><rect x="68.732" y="397.52" width="36.25" height=".25" style="fill: rgb(224, 224, 224); transform-origin: 86.857px 397.645px;" id="elpvd4fgmt7te" class="animable"></rect><rect x="378.352" y="385.39" width="43.19" height=".25" style="fill: rgb(224, 224, 224); transform-origin: 399.947px 385.515px;" id="elweld9vnjhpg" class="animable"></rect><rect x="430.452" y="385.39" width="6.33" height=".25" style="fill: rgb(224, 224, 224); transform-origin: 433.617px 385.515px;" id="elojlvskxupkc" class="animable"></rect><rect x="316.212" y="391.62" width="53.89" height=".25" style="fill: rgb(224, 224, 224); transform-origin: 343.157px 391.745px;" id="el2v1q3m5rbzv" class="animable"></rect></g><g id="elw09vthcb2" class="animable" style="transform-origin: 109.747px 258.169px;"><g id="elca6btha2h15" class="animable" style="transform-origin: 106.473px 254.621px;"><path d="M104.555,326.326c-.03-.945-3.211-94.832-18.483-109.682-14.853-14.439-31.901-.537-32.617,.061l-1.531-1.835c.193-.163,19.432-15.867,35.816,.061,15.957,15.517,19.079,107.415,19.203,111.32l-2.388,.075Z" style="fill: rgb(224, 224, 224); transform-origin: 79.4335px 267.063px;" id="elay3gutw7hck" class="animable"></path><path d="M105.866,344.777c-.11-1.122-10.437-112.711,30.315-159.48l1.802,1.568c-40.076,45.994-29.845,156.568-29.738,157.679l-2.378,.234Z" style="fill: rgb(224, 224, 224); transform-origin: 121.301px 265.038px;" id="el09p2lf33o3ku" class="animable"></path><path d="M104.359,332.974l-2.385-.159c.084-1.265,7.976-126.861-21.917-154.355l1.618-1.76c30.73,28.266,23.027,151.059,22.684,156.273Z" style="fill: rgb(224, 224, 224); transform-origin: 92.7594px 254.837px;" id="eld2l32xr7j6e" class="animable"></path><path d="M108.25,332.904l-2.39-.019c.029-3.459,.986-84.834,24.101-98.081,5.138-2.948,10.17-3.439,14.956-1.459,13.977,5.781,20.903,30.657,21.192,31.712l-2.306,.63c-.068-.248-6.907-24.803-19.802-30.134-4.065-1.678-8.387-1.235-12.851,1.323-21.934,12.57-22.892,95.194-22.899,96.027Z" style="fill: rgb(224, 224, 224); transform-origin: 135.984px 282.529px;" id="elocq6xb3cuwf" class="animable"></path><path d="M99.249,332.962l-2.385-.135c.036-.642,3.486-64.306-13.695-86.737-4.163-5.433-8.682-8.024-13.457-7.691-11.257,.787-20.698,17.261-20.792,17.427l-2.082-1.176c.41-.724,10.163-17.756,22.703-18.634,5.61-.399,10.84,2.507,15.524,8.623,17.721,23.134,14.335,85.675,14.182,88.324Z" style="fill: rgb(224, 224, 224); transform-origin: 73.2201px 284.471px;" id="ellonaktflbxk" class="animable"></path><path d="M103.016,341.621c-.468-6.176-11.232-151.542,7.708-177.157l1.921,1.419c-18.415,24.908-7.358,174.053-7.245,175.556l-2.383,.182Z" style="fill: rgb(224, 224, 224); transform-origin: 106.097px 253.043px;" id="el75fqi9xm8xg" class="animable"></path></g><path d="M150.068,248.078s-11.362,4.188-7.984,14.077c3.378,9.889,39.305,26.164,39.305,26.164,0,0,15.047-13.792,1.229-36.221-13.819-22.43-32.243-11.096-32.55-4.019Z" style="fill: rgb(235, 235, 235); transform-origin: 164.956px 263.59px;" id="el872zg1ijui3" class="animable"></path><path d="M100.675,229.254s12.099-.507,12.787,9.921c.687,10.427-26.211,39.274-26.211,39.274,0,0-19.195-6.94-15.073-32.96,4.123-26.02,25.49-22.649,28.496-16.235Z" style="fill: rgb(235, 235, 235); transform-origin: 92.5364px 251.575px;" id="elktuu7ixk66" class="animable"></path><path d="M90.432,179.341s8.066-.866,7.417-5.779c-.649-4.914-31.357-17.559-49.474,2.889,0,0,11.601,19.927,28.371,20.188,16.77,.261,13.687-17.298,13.687-17.298Z" style="fill: rgb(235, 235, 235); transform-origin: 73.1306px 180.908px;" id="el9jah6mb1yir" class="animable"></path><path d="M105.463,167.409s-7.304,3.532-9.351-.982c-2.047-4.513,17.325-31.486,43.517-23.714,0,0,.694,23.048-13.401,32.138-14.094,9.091-20.765-7.442-20.765-7.442Z" style="fill: rgb(235, 235, 235); transform-origin: 117.799px 159.448px;" id="el9n1bse9frx6" class="animable"></path><path d="M67.272,244.103s5.567-4.495-.441-6.689c-6.008-2.194-35.487-1.571-35.794,27.631,0,0,34.334,5.705,38.584-5.418,4.25-11.123-2.349-15.524-2.349-15.524Z" style="fill: rgb(235, 235, 235); transform-origin: 51.0424px 251.575px;" id="elo181no1jkj" class="animable"></path><path d="M137.285,178.609s-5.567-4.495,.441-6.689c6.008-2.194,35.487-1.571,35.794,27.631,0,0-34.334,5.706-38.584-5.418-4.25-11.123,2.348-15.524,2.348-15.524Z" style="fill: rgb(235, 235, 235); transform-origin: 153.515px 186.081px;" id="elgurwgkptmp5" class="animable"></path><path d="M119.134,202.132s-.49-5.464,3.921-3.322c4.411,2.142,19.779,18.721,3.849,34.454,0,0-21.444-15.882-17.579-24.152,3.865-8.27,9.808-6.979,9.808-6.979Z" style="fill: rgb(235, 235, 235); transform-origin: 121.414px 215.788px;" id="elgzljx5g59t4" class="animable"></path><path d="M62.295,209.918s3.328-4.361-1.545-4.901c-4.874-.541-26.716,5.289-21.629,27.094,0,0,26.609-2,27.749-11.058,1.141-9.058-4.575-11.135-4.575-11.135Z" style="fill: rgb(235, 235, 235); transform-origin: 52.6894px 218.547px;" id="elmvomc5t7y2e" class="animable"></path><polygon points="130.619 375.023 76.947 375.023 62.671 309.174 143.54 309.174 130.619 375.023" style="fill: rgb(240, 240, 240); transform-origin: 103.105px 342.099px;" id="elexvnyz72lo" class="animable"></polygon><rect x="57.802" y="308.221" width="90.396" height="18.936" style="fill: rgb(230, 230, 230); transform-origin: 103px 317.689px;" id="eldys4nwndko" class="animable"></rect></g><g id="elgylmf60j268" class="animable" style="transform-origin: 364.353px 117.446px;"><rect x="322.308" y="47.954" width="108.326" height="138.984" style="fill: rgb(230, 230, 230); transform-origin: 376.471px 117.446px;" id="elqjcle53wnyq" class="animable"></rect><rect x="298.072" y="47.954" width="127.247" height="138.984" style="fill: rgb(240, 240, 240); transform-origin: 361.695px 117.446px;" id="elsfhm2o81t5a" class="animable"></rect><rect x="309.804" y="60.298" width="103.23" height="114.294" style="fill: rgb(255, 255, 255); transform-origin: 361.419px 117.445px;" id="elp6e11spi7s" class="animable"></rect><rect x="343.713" y="96.817" width="37.264" height="41.257" style="fill: rgb(240, 240, 240); transform-origin: 362.345px 117.445px;" id="el0sh1in3kxx4" class="animable"></rect></g></g><g id="freepik--Shadow--inject-187" class="animable animator-hidden" style="transform-origin: 250.599px 435.988px;"><ellipse cx="250.599" cy="435.988" rx="223.432" ry="12.388" style="fill: rgb(245, 245, 245); transform-origin: 250.599px 435.988px;" id="elrjde0ai6ggl" class="animable"></ellipse></g><g id="freepik--Computer--inject-187" class="animable" style="transform-origin: 249.958px 252.01px;"><g id="elwpsy2dx8i4" class="animable" style="transform-origin: 249.958px 252.01px;"><rect x="115.863" y="82.466" width="269.13" height="226.166" style="fill: rgb(211, 139, 252); transform-origin: 250.428px 195.549px;" id="elu8o1c0jasun" class="animable"></rect><rect x="145.185" y="113.735" width="209.546" height="162.591" style="fill: rgb(38, 50, 56); transform-origin: 249.958px 195.031px;" id="el8vpqc47epht" class="animable"></rect><rect x="183.13" y="308.632" width="139.595" height="22.58" style="fill: rgb(211, 139, 252); transform-origin: 252.928px 319.922px;" id="elozhagrp1vy" class="animable"></rect><rect x="165.937" y="331.211" width="173.98" height="14.261" style="fill: rgb(211, 139, 252); transform-origin: 252.927px 338.341px;" id="eltaavrzuh5j" class="animable"></rect><rect x="108.324" y="345.472" width="283.268" height="76.082" style="fill: rgb(211, 139, 252); transform-origin: 249.958px 383.513px;" id="el7lazypidb89" class="animable"></rect><path d="M229.295,372.858H117.227v-15.315h112.068v15.315Zm-111.318-.75h110.568v-13.815H117.977v13.815Z" style="fill: rgb(38, 50, 56); transform-origin: 173.261px 365.201px;" id="el1b4mh2g8fde" class="animable"></path><g id="elooqx0tj0k2d"><rect x="210.194" y="376.698" width="18.726" height="6.521" rx="3.048" ry="3.048" style="opacity: 0.4; transform-origin: 219.557px 379.958px;" class="animable"></rect></g><g id="elvcfvkgc0gbg"><circle cx="202.11" cy="379.958" r="2.967" style="fill: rgb(255, 255, 255); opacity: 0.4; transform-origin: 202.11px 379.958px;" class="animable"></circle></g><g id="eljtzdn997dc9"><rect x="295.269" y="362.049" width="89.297" height="6.304" style="opacity: 0.4; transform-origin: 339.918px 365.201px;" class="animable"></rect></g><g id="elwx3w1ulq3cl"><rect x="367.827" y="373.72" width="16.739" height="5.955" style="fill: rgb(255, 255, 255); opacity: 0.4; transform-origin: 376.197px 376.698px;" class="animable"></rect></g><g id="elkxef22blnho"><path d="M346.864,405.611c0,1.424-1.155,2.579-2.579,2.579s-2.579-1.155-2.579-2.579,1.155-2.579,2.579-2.579,2.579,1.155,2.579,2.579Z" style="opacity: 0.4; transform-origin: 344.285px 405.611px;" class="animable"></path></g><g id="elidefdvkt2pk"><path d="M353.838,405.611c0,1.424-1.155,2.579-2.579,2.579s-2.579-1.155-2.579-2.579,1.155-2.579,2.579-2.579,2.579,1.155,2.579,2.579Z" style="opacity: 0.4; transform-origin: 351.259px 405.611px;" class="animable"></path></g><g id="el14phxf1djw"><path d="M360.812,405.611c0,1.424-1.155,2.579-2.579,2.579s-2.579-1.155-2.579-2.579,1.155-2.579,2.579-2.579,2.579,1.155,2.579,2.579Z" style="opacity: 0.4; transform-origin: 358.233px 405.611px;" class="animable"></path></g><g id="elz5hqao6zqg"><path d="M368.32,399.934c3.135-3.135,8.218-3.135,11.354,0,3.135,3.135,3.135,8.219,0,11.354-3.135,3.135-8.218,3.135-11.354,0-3.135-3.135-3.135-8.218,0-11.354Z" style="opacity: 0.4; transform-origin: 373.997px 405.611px;" class="animable"></path></g><g id="el5oa164bgs7f"><rect x="165.937" y="331.211" width="173.98" height="14.261" style="opacity: 0.4; transform-origin: 252.927px 338.341px;" class="animable"></rect></g><g id="el2ej2mt73wpw"><rect x="119.417" y="397.537" width=".75" height="10.348" style="opacity: 0.4; transform-origin: 119.792px 402.711px;" class="animable"></rect></g><g id="elknr0htq2tx"><rect x="123.105" y="397.537" width=".75" height="10.348" style="opacity: 0.4; transform-origin: 123.48px 402.711px;" class="animable"></rect></g><g id="el0zrs6xek80l"><rect x="126.794" y="397.537" width=".75" height="10.348" style="opacity: 0.4; transform-origin: 127.169px 402.711px;" class="animable"></rect></g><g id="el66c7cinl5qj"><rect x="130.483" y="397.537" width=".75" height="10.348" style="opacity: 0.4; transform-origin: 130.858px 402.711px;" class="animable"></rect></g><g id="elx4tkxqje6n"><rect x="134.171" y="397.537" width=".75" height="10.348" style="opacity: 0.4; transform-origin: 134.546px 402.711px;" class="animable"></rect></g><g id="el3vaszo397lg"><rect x="137.86" y="397.537" width=".75" height="10.348" style="opacity: 0.4; transform-origin: 138.235px 402.711px;" class="animable"></rect></g><g id="el1zr9add7zq2"><rect x="141.549" y="397.537" width=".75" height="10.348" style="opacity: 0.4; transform-origin: 141.924px 402.711px;" class="animable"></rect></g><g id="el5w2s1o3e295"><rect x="145.237" y="397.537" width=".75" height="10.348" style="opacity: 0.4; transform-origin: 145.612px 402.711px;" class="animable"></rect></g><g id="el47sj4hwkebe"><rect x="148.926" y="397.537" width=".75" height="10.348" style="opacity: 0.4; transform-origin: 149.301px 402.711px;" class="animable"></rect></g><g id="elim16qs5ln6h"><rect x="152.615" y="397.537" width=".75" height="10.348" style="opacity: 0.4; transform-origin: 152.99px 402.711px;" class="animable"></rect></g><g id="elw4mkz1da6et"><rect x="156.303" y="397.537" width=".75" height="10.348" style="opacity: 0.4; transform-origin: 156.678px 402.711px;" class="animable"></rect></g><g id="eljuejneg5q7q"><rect x="159.992" y="397.537" width=".75" height="10.348" style="opacity: 0.4; transform-origin: 160.367px 402.711px;" class="animable"></rect></g><g id="ellhqikxnuqhg"><rect x="163.681" y="397.537" width=".75" height="10.348" style="opacity: 0.4; transform-origin: 164.056px 402.711px;" class="animable"></rect></g><g id="elkqzgldzl1i"><rect x="167.37" y="397.537" width=".75" height="10.348" style="opacity: 0.4; transform-origin: 167.745px 402.711px;" class="animable"></rect></g><g id="elt801w6m4vbk"><rect x="171.058" y="397.537" width=".75" height="10.348" style="opacity: 0.4; transform-origin: 171.433px 402.711px;" class="animable"></rect></g><g id="el9oicugh6pza"><rect x="174.747" y="397.537" width=".75" height="10.348" style="opacity: 0.4; transform-origin: 175.122px 402.711px;" class="animable"></rect></g><g id="elklhvvxbz7ej"><rect x="178.436" y="397.537" width=".75" height="10.348" style="opacity: 0.4; transform-origin: 178.811px 402.711px;" class="animable"></rect></g><g id="eltx4j2f6d6v"><rect x="182.124" y="397.537" width=".75" height="10.348" style="opacity: 0.4; transform-origin: 182.499px 402.711px;" class="animable"></rect></g><g id="elmfq6uixcn2i"><rect x="185.813" y="397.537" width=".75" height="10.348" style="opacity: 0.4; transform-origin: 186.188px 402.711px;" class="animable"></rect></g><g id="el066pp8oysqob"><rect x="189.501" y="397.537" width=".75" height="10.348" style="opacity: 0.4; transform-origin: 189.876px 402.711px;" class="animable"></rect></g><g id="elfqr1fadii1i"><rect x="193.19" y="397.537" width=".75" height="10.348" style="opacity: 0.4; transform-origin: 193.565px 402.711px;" class="animable"></rect></g><g id="eldr127kni3"><rect x="196.879" y="397.537" width=".75" height="10.348" style="opacity: 0.4; transform-origin: 197.254px 402.711px;" class="animable"></rect></g><g id="el7rzrioza8r8"><rect x="200.567" y="397.537" width=".75" height="10.348" style="opacity: 0.4; transform-origin: 200.942px 402.711px;" class="animable"></rect></g><g id="el5p035nkmk8v"><rect x="204.256" y="397.537" width=".75" height="10.348" style="opacity: 0.4; transform-origin: 204.631px 402.711px;" class="animable"></rect></g><g id="elu36ba0sjmy9"><rect x="207.945" y="397.537" width=".75" height="10.348" style="opacity: 0.4; transform-origin: 208.32px 402.711px;" class="animable"></rect></g><g id="el702jk5n07n3"><rect x="211.634" y="397.537" width=".75" height="10.348" style="opacity: 0.4; transform-origin: 212.009px 402.711px;" class="animable"></rect></g><g id="el8tth4vzzef"><rect x="215.322" y="397.537" width=".75" height="10.348" style="opacity: 0.4; transform-origin: 215.697px 402.711px;" class="animable"></rect></g><g id="elu0qdiapyxmh"><rect x="219.011" y="397.537" width=".75" height="10.348" style="opacity: 0.4; transform-origin: 219.386px 402.711px;" class="animable"></rect></g><g id="elkxakt6h50wq"><rect x="222.7" y="397.537" width=".75" height="10.348" style="opacity: 0.4; transform-origin: 223.075px 402.711px;" class="animable"></rect></g><g id="el4dbzg9p26r5"><rect x="226.388" y="397.537" width=".75" height="10.348" style="opacity: 0.4; transform-origin: 226.763px 402.711px;" class="animable"></rect></g><g id="elshu8r0yrzzm"><rect x="230.077" y="397.537" width=".75" height="10.348" style="opacity: 0.4; transform-origin: 230.452px 402.711px;" class="animable"></rect></g><g id="elbv5hvrw29h5"><polygon points="183.13 308.632 322.724 308.632 322.724 316.241 183.175 315.954 183.13 308.632" style="opacity: 0.4; transform-origin: 252.927px 312.436px;" class="animable"></polygon></g><g id="elau79xnqrfpl"><polygon points="145.185 276.325 137.286 282.329 362.63 282.329 354.731 276.325 145.185 276.325" style="opacity: 0.4; transform-origin: 249.958px 279.327px;" class="animable"></polygon></g><g id="elplvcv1argxa"><polygon points="354.731 113.735 362.63 106.23 137.286 106.23 145.185 113.735 354.731 113.735" style="opacity: 0.4; transform-origin: 249.958px 109.983px;" class="animable"></polygon></g><g id="el7f4o1783sn"><polygon points="354.731 276.325 362.63 282.329 362.63 106.23 354.731 113.735 354.731 276.325" style="fill: rgb(255, 255, 255); opacity: 0.4; transform-origin: 358.68px 194.28px;" class="animable"></polygon></g><g id="el8piomn6ho3v"><polygon points="145.185 276.325 137.286 282.329 137.286 106.23 145.185 113.735 145.185 276.325" style="fill: rgb(255, 255, 255); opacity: 0.4; transform-origin: 141.235px 194.28px;" class="animable"></polygon></g><g id="elj01u0a2s44k"><path d="M152.99,118.853c-.778,1.751-5.644,147.708,0,150.627,5.644,2.919,191.519,4.087,195.204,2.335s2.973-149.219-1.947-152.532c-5.742-3.867-193.258-.431-193.258-.431Z" style="fill: rgb(255, 255, 255); opacity: 0.2; transform-origin: 250.412px 195.042px;" class="animable"></path></g><path d="M384.938,368.728h-90.044v-6.862h90.115l-.071,6.862Zm-89.294-.75h88.552l.056-5.362h-88.607v5.362Z" style="fill: rgb(38, 50, 56); transform-origin: 339.951px 365.297px;" id="elywj9yrlng28" class="animable"></path><g id="elja53u7m1i5"><rect x="108.324" y="390.945" width="283.268" height=".75" style="opacity: 0.4; transform-origin: 249.958px 391.32px;" class="animable"></rect></g></g></g><g id="freepik--Documents--inject-187" class="animable" style="transform-origin: 253.104px 194.733px;"><g id="elypb3nltnw7" class="animable" style="transform-origin: 178.811px 165.493px;"><g id="eleqmjg690c6o" class="animable" style="transform-origin: 178.811px 165.493px;"><g id="el44al2gf8et8" class="animable" style="transform-origin: 178.811px 165.494px;"><polygon points="192.642 181.957 164.979 181.957 164.979 149.031 187.441 149.031 192.642 154.454 192.642 181.957" style="fill: rgb(255, 255, 255); transform-origin: 178.811px 165.494px;" id="elh33qivaljeu" class="animable"></polygon><path d="M193.017,182.332h-28.412v-33.676h22.997l5.416,5.647v28.029Zm-27.662-.75h26.912v-26.977l-4.986-5.199h-21.926v32.176Z" id="el5via86kekqn" class="animable" style="transform-origin: 178.811px 165.494px;"></path></g><g id="elcd2lkwk9s0j" class="animable" style="transform-origin: 189.947px 151.742px;"><polygon points="187.251 149.031 187.251 154.4 192.642 154.454 187.251 149.031" style="fill: rgb(255, 255, 255); transform-origin: 189.947px 151.743px;" id="el6wjsdgp19f" class="animable"></polygon><path d="M192.642,154.829h-.004l-5.391-.054c-.206-.002-.371-.169-.371-.375v-5.37c0-.152,.092-.289,.232-.347,.141-.057,.302-.026,.409,.083l5.391,5.423c.107,.108,.139,.27,.08,.41-.059,.139-.195,.229-.346,.229Zm-5.016-.8l4.105,.041-4.105-4.13v4.089Z" id="elwtu014t1osf" class="animable" style="transform-origin: 189.947px 151.742px;"></path></g></g><g id="elft20qivjqw8" class="animable" style="transform-origin: 178.811px 165.943px;"><rect x="170.567" y="157.383" width="16.487" height=".75" id="el9kr0wkbzj3e" class="animable" style="transform-origin: 178.811px 157.758px;"></rect><rect x="170.567" y="159.722" width="16.487" height=".75" id="el3gsinavxera" class="animable" style="transform-origin: 178.811px 160.097px;"></rect><rect x="170.567" y="162.061" width="9.635" height=".75" id="elluabhruxagm" class="animable" style="transform-origin: 175.385px 162.436px;"></rect><rect x="170.567" y="164.399" width="16.487" height=".75" id="elgaf1yzcqu1" class="animable" style="transform-origin: 178.811px 164.774px;"></rect><rect x="170.567" y="166.738" width="16.487" height=".75" id="eluh4x5iy7ws" class="animable" style="transform-origin: 178.811px 167.113px;"></rect><rect x="170.567" y="169.077" width="16.487" height=".75" id="elyv94ifisl4" class="animable" style="transform-origin: 178.811px 169.452px;"></rect><rect x="170.567" y="171.415" width="16.487" height=".75" id="elmky0tf5uqo" class="animable" style="transform-origin: 178.811px 171.79px;"></rect><rect x="170.567" y="173.754" width="8.244" height=".75" id="elamrpj09i10i" class="animable" style="transform-origin: 174.689px 174.129px;"></rect></g></g><g id="el8hrhwtw38py" class="animable" style="transform-origin: 295.269px 146.712px;"><g id="elgte1wzxqtvr" class="animable" style="transform-origin: 295.269px 146.712px;"><g id="elitduihibcd" class="animable" style="transform-origin: 295.269px 146.712px;"><polygon points="309.1 163.176 281.438 163.176 281.438 130.249 303.899 130.249 309.1 135.672 309.1 163.176" style="fill: rgb(255, 255, 255); transform-origin: 295.269px 146.712px;" id="elxadex3mcwna" class="animable"></polygon><path d="M309.475,163.55h-28.412v-33.676h22.997l5.415,5.647v28.029Zm-27.662-.75h26.912v-26.977l-4.985-5.199h-21.927v32.176Z" id="elqctma9pmt2d" class="animable" style="transform-origin: 295.269px 146.712px;"></path></g><g id="eluyk4w4hy3" class="animable" style="transform-origin: 306.404px 132.961px;"><polygon points="303.709 130.249 303.709 135.619 309.1 135.672 303.709 130.249" style="fill: rgb(255, 255, 255); transform-origin: 306.405px 132.96px;" id="eleo7p47jizdu" class="animable"></polygon><path d="M309.1,136.047h-.004l-5.391-.053c-.205-.002-.371-.169-.371-.375v-5.37c0-.152,.092-.289,.232-.347,.141-.057,.303-.025,.408,.083l5.391,5.423c.107,.108,.139,.27,.08,.41-.059,.139-.195,.229-.346,.229Zm-5.016-.799l4.105,.041-4.105-4.13v4.089Z" id="el4sj9x10lcul" class="animable" style="transform-origin: 306.404px 132.961px;"></path></g></g><g id="elmxcg7oz15xe" class="animable" style="transform-origin: 295.268px 147.162px;"><rect x="287.025" y="138.602" width="16.487" height=".75" id="elat0lzxbkm4w" class="animable" style="transform-origin: 295.268px 138.977px;"></rect><rect x="287.025" y="140.94" width="16.487" height=".75" id="elttqqrm8a8po" class="animable" style="transform-origin: 295.268px 141.315px;"></rect><rect x="287.025" y="143.279" width="9.635" height=".75" id="elc2rn9trhw95" class="animable" style="transform-origin: 291.842px 143.654px;"></rect><rect x="287.025" y="145.618" width="16.487" height=".75" id="elmumwp5ggqln" class="animable" style="transform-origin: 295.268px 145.993px;"></rect><rect x="287.025" y="147.957" width="16.487" height=".75" id="elyvtioh3tby" class="animable" style="transform-origin: 295.268px 148.332px;"></rect><rect x="287.025" y="150.295" width="16.487" height=".75" id="eljw241uktbj" class="animable" style="transform-origin: 295.268px 150.67px;"></rect><rect x="287.025" y="152.634" width="16.487" height=".75" id="elilua442737" class="animable" style="transform-origin: 295.268px 153.009px;"></rect><rect x="287.025" y="154.972" width="8.243" height=".75" id="eli7de2ypklb9" class="animable" style="transform-origin: 291.147px 155.347px;"></rect></g></g><g id="el8eytwlfzit8" class="animable" style="transform-origin: 313.447px 225.57px;"><g id="el2w4s5egc52i" class="animable" style="transform-origin: 313.447px 225.57px;"><g id="elqziesrbnrl" class="animable" style="transform-origin: 313.447px 225.57px;"><polygon points="327.278 242.033 299.616 242.033 299.616 209.107 322.077 209.107 327.278 214.53 327.278 242.033" style="fill: rgb(255, 255, 255); transform-origin: 313.447px 225.57px;" id="elqyeiokbw2am" class="animable"></polygon><path d="M327.653,242.408h-28.413v-33.676h22.997l5.416,5.647v28.029Zm-27.663-.75h26.913v-26.977l-4.986-5.199h-21.927v32.176Z" id="elyaxnj2hqjpn" class="animable" style="transform-origin: 313.447px 225.57px;"></path></g><g id="elhxs371r8bnn" class="animable" style="transform-origin: 324.582px 211.818px;"><polygon points="321.887 209.107 321.887 214.476 327.278 214.53 321.887 209.107" style="fill: rgb(255, 255, 255); transform-origin: 324.583px 211.818px;" id="elx4shm95ujn" class="animable"></polygon><path d="M327.278,214.905h-.004l-5.391-.054c-.205-.002-.371-.169-.371-.375v-5.37c0-.152,.092-.289,.232-.347,.141-.057,.302-.025,.408,.083l5.391,5.423c.107,.108,.139,.27,.08,.41-.059,.139-.195,.229-.346,.229Zm-5.016-.8l4.105,.041-4.105-4.13v4.089Z" id="elldmultv294e" class="animable" style="transform-origin: 324.582px 211.818px;"></path></g></g><g id="eliv7nm6u3fpn" class="animable" style="transform-origin: 313.447px 226.019px;"><rect x="305.203" y="217.459" width="16.487" height=".75" id="elh0cayh7pxgq" class="animable" style="transform-origin: 313.446px 217.834px;"></rect><rect x="305.203" y="219.797" width="16.487" height=".75" id="el52lr3709ay4" class="animable" style="transform-origin: 313.446px 220.172px;"></rect><rect x="305.203" y="222.136" width="9.635" height=".75" id="els35oyk33k" class="animable" style="transform-origin: 310.02px 222.511px;"></rect><rect x="305.203" y="224.475" width="16.487" height=".75" id="elf1kcbtif1f" class="animable" style="transform-origin: 313.446px 224.85px;"></rect><rect x="305.203" y="226.813" width="16.487" height=".75" id="elqjzzfbcslj" class="animable" style="transform-origin: 313.446px 227.188px;"></rect><rect x="305.203" y="229.152" width="16.487" height=".75" id="elu8xvc4d6a6" class="animable" style="transform-origin: 313.446px 229.527px;"></rect><rect x="305.203" y="231.491" width="16.487" height=".75" id="el70caomf3jqc" class="animable" style="transform-origin: 313.446px 231.866px;"></rect><rect x="305.203" y="233.829" width="8.244" height=".75" id="elmobhbuzg2zo" class="animable" style="transform-origin: 309.325px 234.204px;"></rect></g></g><g id="elemqec2rmhyu" class="animable" style="transform-origin: 327.397px 240.414px;"><g id="el6urdahoq2xm" class="animable" style="transform-origin: 327.397px 240.414px;"><g id="el41miinob0z3" class="animable" style="transform-origin: 327.397px 240.414px;"><polygon points="341.227 256.877 313.565 256.877 313.565 223.951 336.027 223.951 341.227 229.374 341.227 256.877" style="fill: rgb(255, 255, 255); transform-origin: 327.396px 240.414px;" id="el3m5jhp99sra" class="animable"></polygon><path d="M341.603,257.252h-28.412v-33.676h22.997l5.415,5.647v28.029Zm-27.662-.75h26.912v-26.977l-4.985-5.199h-21.927v32.176Z" id="eltjvbuvfupgk" class="animable" style="transform-origin: 327.397px 240.414px;"></path></g><g id="elg8txlwr9zc9" class="animable" style="transform-origin: 338.532px 226.662px;"><polygon points="335.837 223.951 335.837 229.32 341.227 229.374 335.837 223.951" style="fill: rgb(255, 255, 255); transform-origin: 338.532px 226.662px;" id="eljh3jg6pjuj9" class="animable"></polygon><path d="M341.228,229.749h-.004l-5.391-.054c-.205-.002-.371-.169-.371-.375v-5.37c0-.152,.092-.289,.232-.347,.141-.057,.303-.025,.408,.083l5.391,5.423c.107,.108,.139,.27,.08,.41-.059,.139-.195,.229-.346,.229Zm-5.016-.8l4.105,.041-4.105-4.13v4.089Z" id="eljew3haenyan" class="animable" style="transform-origin: 338.532px 226.662px;"></path></g></g><g id="el1f8zbjz42bz" class="animable" style="transform-origin: 327.396px 240.864px;"><rect x="319.152" y="232.303" width="16.487" height=".75" id="elg0uil0cbv36" class="animable" style="transform-origin: 327.395px 232.678px;"></rect><rect x="319.152" y="234.642" width="16.487" height=".75" id="elovdp5tt7c5" class="animable" style="transform-origin: 327.395px 235.017px;"></rect><rect x="319.152" y="236.98" width="9.635" height=".75" id="el546um5gem4r" class="animable" style="transform-origin: 323.969px 237.355px;"></rect><rect x="319.152" y="239.319" width="16.487" height=".75" id="elamvdff868r4" class="animable" style="transform-origin: 327.395px 239.694px;"></rect><rect x="319.152" y="241.658" width="16.487" height=".75" id="el2xfwmg0v5oe" class="animable" style="transform-origin: 327.395px 242.033px;"></rect><rect x="319.152" y="243.996" width="16.487" height=".75" id="el9395s5hiqil" class="animable" style="transform-origin: 327.395px 244.371px;"></rect><rect x="319.152" y="246.335" width="16.487" height=".75" id="ellsvon678hyl" class="animable" style="transform-origin: 327.395px 246.71px;"></rect><rect x="319.152" y="248.674" width="8.244" height=".75" id="elu8vnnlygnjj" class="animable" style="transform-origin: 323.274px 249.049px;"></rect></g></g><g id="el8kir28atjkc" class="animable" style="transform-origin: 260.012px 242.753px;"><g id="elevm9twnghwv" class="animable" style="transform-origin: 260.012px 242.753px;"><g id="eln0u3ixf17z" class="animable" style="transform-origin: 260.012px 242.753px;"><polygon points="273.843 259.216 246.18 259.216 246.18 226.289 268.642 226.289 273.843 231.712 273.843 259.216" style="fill: rgb(255, 255, 255); transform-origin: 260.011px 242.753px;" id="elwsuqpqylzde" class="animable"></polygon><path d="M274.218,259.591h-28.412v-33.676h22.997l5.415,5.647v28.029Zm-27.662-.75h26.912v-26.978l-4.985-5.199h-21.927v32.176Z" id="elyutzrtupeyb" class="animable" style="transform-origin: 260.012px 242.753px;"></path></g><g id="elkegiah89bef" class="animable" style="transform-origin: 271.147px 229.001px;"><polygon points="268.452 226.289 268.452 231.659 273.843 231.712 268.452 226.289" style="fill: rgb(255, 255, 255); transform-origin: 271.147px 229.001px;" id="eldx0t5u4dsuw" class="animable"></polygon><path d="M273.843,232.087h-.004l-5.391-.053c-.205-.002-.371-.169-.371-.375v-5.37c0-.152,.092-.289,.232-.347,.141-.057,.303-.025,.408,.083l5.391,5.423c.107,.108,.139,.27,.08,.41-.059,.139-.195,.229-.346,.229Zm-5.016-.799l4.105,.041-4.105-4.13v4.089Z" id="elyj5ykps6wdk" class="animable" style="transform-origin: 271.147px 229.001px;"></path></g></g><g id="ellh31nh3pn3d" class="animable" style="transform-origin: 260.012px 243.202px;"><rect x="251.768" y="234.642" width="16.488" height=".75" id="el722v2i4r18f" class="animable" style="transform-origin: 260.012px 235.017px;"></rect><rect x="251.768" y="236.98" width="16.488" height=".75" id="el5ajz91w27ej" class="animable" style="transform-origin: 260.012px 237.355px;"></rect><rect x="251.768" y="239.319" width="9.635" height=".75" id="el7xocf2h5zgg" class="animable" style="transform-origin: 256.586px 239.694px;"></rect><rect x="251.768" y="241.658" width="16.488" height=".75" id="el95e75oecsnb" class="animable" style="transform-origin: 260.012px 242.033px;"></rect><rect x="251.768" y="243.996" width="16.488" height=".75" id="elfjyjizhqby6" class="animable" style="transform-origin: 260.012px 244.371px;"></rect><rect x="251.768" y="246.335" width="16.488" height=".75" id="ellsnhag3yum" class="animable" style="transform-origin: 260.012px 246.71px;"></rect><rect x="251.768" y="248.674" width="16.488" height=".75" id="el4mklndnmg2w" class="animable" style="transform-origin: 260.012px 249.049px;"></rect><rect x="251.768" y="251.012" width="8.244" height=".75" id="eli71bxkopu0l" class="animable" style="transform-origin: 255.89px 251.387px;"></rect></g></g></g><g id="freepik--Tab--inject-187" class="animable" style="transform-origin: 254.829px 195.549px;"><g id="elmt9toidkn4m" class="animable" style="transform-origin: 254.829px 195.549px;"><rect x="182.297" y="168.797" width="145.064" height="53.503" style="fill: rgb(211, 139, 252); transform-origin: 254.829px 195.548px;" id="elvmddjjg3wm" class="animable"></rect><g id="el05j0c0arnsfh"><rect x="182.297" y="168.797" width="145.064" height="53.503" style="fill: rgb(255, 255, 255); opacity: 0.7; transform-origin: 254.829px 195.548px;" class="animable"></rect></g><rect x="182.297" y="168.797" width="145.064" height="9.928" style="fill: rgb(211, 139, 252); transform-origin: 254.829px 173.761px;" id="el4bvr210z2iq" class="animable"></rect><path d="M325.102,176.696h-7.95v-7.039h7.95v7.039Zm-7.2-.75h6.45v-5.539h-6.45v5.539Z" id="ellfnq9folxp" class="animable" style="transform-origin: 321.127px 173.176px;"></path><g id="elwebqizlmuf" class="animable" style="transform-origin: 321.178px 173.228px;"><g id="ely5g88e6kuxb"><rect x="318.533" y="172.853" width="5.083" height=".751" class="animable" style="transform-origin: 321.075px 173.228px; transform: rotate(-45.053deg);"></rect></g><g id="elhi04z5dewmm"><rect x="320.806" y="170.61" width=".751" height="5.237" class="animable" style="transform-origin: 321.181px 173.229px; transform: rotate(-46.659deg);"></rect></g></g><g id="elc54biq6uo8e" class="animable" style="transform-origin: 254.829px 202.259px;"><rect x="190.278" y="196.927" width="3.453" height="10.568" style="fill: rgb(211, 139, 252); transform-origin: 192.004px 202.211px;" id="elsyeavs4d24" class="animable"></rect><g id="el89omnqq03bo" class="animable" style="transform-origin: 254.829px 202.259px;"><path d="M321.636,209.344H188.022v-14.17h133.613v14.17Zm-132.863-.75h132.113v-12.67H188.772v12.67Z" id="el4lc1ucd2v6m" class="animable" style="transform-origin: 254.829px 202.259px;"></path><rect x="196.138" y="196.927" width="3.453" height="10.568" style="fill: rgb(211, 139, 252); transform-origin: 197.864px 202.211px;" id="el7xdqdki311g" class="animable"></rect><rect x="201.997" y="196.927" width="3.453" height="10.568" style="fill: rgb(211, 139, 252); transform-origin: 203.724px 202.211px;" id="eltnebeiw54f" class="animable"></rect><rect x="207.856" y="196.927" width="3.453" height="10.568" style="fill: rgb(211, 139, 252); transform-origin: 209.582px 202.211px;" id="elf1j7vj1dq6" class="animable"></rect><rect x="213.716" y="196.927" width="3.453" height="10.568" style="fill: rgb(211, 139, 252); transform-origin: 215.442px 202.211px;" id="elbxez9w6lsif" class="animable"></rect><rect x="219.575" y="196.927" width="3.453" height="10.568" style="fill: rgb(211, 139, 252); transform-origin: 221.301px 202.211px;" id="el714j0dsmxc6" class="animable"></rect><rect x="225.435" y="196.927" width="3.453" height="10.568" style="fill: rgb(211, 139, 252); transform-origin: 227.161px 202.211px;" id="elcjdlub75pi" class="animable"></rect><rect x="231.294" y="196.927" width="3.453" height="10.568" style="fill: rgb(211, 139, 252); transform-origin: 233.02px 202.211px;" id="elhpzx725fad" class="animable"></rect><rect x="237.154" y="196.927" width="3.453" height="10.568" style="fill: rgb(211, 139, 252); transform-origin: 238.88px 202.211px;" id="ell150o6k3o5" class="animable"></rect><rect x="243.013" y="196.927" width="3.453" height="10.568" style="fill: rgb(211, 139, 252); transform-origin: 244.739px 202.211px;" id="elyl01oe11rbn" class="animable"></rect><rect x="248.872" y="196.927" width="3.453" height="10.568" style="fill: rgb(211, 139, 252); transform-origin: 250.599px 202.211px;" id="elvgw9jb49b7j" class="animable"></rect><rect x="254.732" y="196.927" width="3.453" height="10.568" style="fill: rgb(211, 139, 252); transform-origin: 256.459px 202.211px;" id="elfcpws4zu6y" class="animable"></rect><rect x="190.56" y="197.676" width="128.067" height=".75" style="fill: rgb(255, 255, 255); transform-origin: 254.594px 198.051px;" id="elk8zmmrxgq7" class="animable"></rect></g></g><g id="elaj4nprg653"><polygon points="317.526 176.321 317.526 177.046 325.424 177.046 325.424 170.032 324.727 170.032 324.727 176.321 317.526 176.321" style="opacity: 0.3; transform-origin: 321.475px 173.539px;" class="animable"></polygon></g><g id="elqme8eoekm3"><polygon points="190.278 208.969 190.278 210.944 322.872 210.944 322.872 195.549 321.261 195.549 321.261 208.969 190.278 208.969" style="opacity: 0.3; transform-origin: 256.575px 203.246px;" class="animable"></polygon></g></g></g><g id="freepik--Mouse--inject-187" class="animable" style="transform-origin: 421.347px 428.622px;"><g id="elett4lvx88n6" class="animable" style="transform-origin: 421.347px 428.622px;"><path d="M414.061,421.256h14.573c7.601,0,13.772,6.171,13.772,13.772v.96h-42.118v-.96c0-7.601,6.171-13.772,13.772-13.772Z" style="fill: rgb(211, 139, 252); transform-origin: 421.347px 428.622px;" id="ele95zuk0kw8k" class="animable"></path><g id="elvsuh80ojjhb"><path d="M441.853,434.668h-40.919c-.207,0-.375-.168-.375-.375s.168-.375,.375-.375h40.919c.207,0,.375,.168,.375,.375s-.168,.375-.375,.375Z" style="opacity: 0.2; transform-origin: 421.393px 434.293px;" class="animable"></path></g></g></g><g id="freepik--Keyboard--inject-187" class="animable" style="transform-origin: 202.786px 423.424px;"><g id="el7o95iln705" class="animable" style="transform-origin: 202.786px 423.424px;"><rect x="46.822" y="413.89" width="19.372" height="6.621" style="fill: rgb(211, 139, 252); transform-origin: 56.508px 417.2px;" id="els4ju3houa2" class="animable"></rect><g id="elw2tn248que"><rect x="46.822" y="413.89" width="19.372" height="6.621" style="opacity: 0.4; transform-origin: 56.508px 417.2px;" class="animable"></rect></g><rect x="70.876" y="413.89" width="13.501" height="6.621" style="fill: rgb(211, 139, 252); transform-origin: 77.6265px 417.2px;" id="elr7j1sh6yol" class="animable"></rect><g id="el3tt739xnd0k"><rect x="70.876" y="413.89" width="13.501" height="6.621" style="opacity: 0.4; transform-origin: 77.6265px 417.2px;" class="animable"></rect></g><rect x="89.116" y="413.89" width="13.501" height="6.621" style="fill: rgb(211, 139, 252); transform-origin: 95.8665px 417.2px;" id="elp1uaq8tvxe" class="animable"></rect><g id="el3ayiu1gc6zo"><rect x="89.116" y="413.89" width="13.501" height="6.621" style="opacity: 0.4; transform-origin: 95.8665px 417.2px;" class="animable"></rect></g><rect x="107.356" y="413.89" width="13.501" height="6.621" style="fill: rgb(211, 139, 252); transform-origin: 114.106px 417.2px;" id="el58m5053ujb3" class="animable"></rect><g id="elqhkg62nlxk"><rect x="107.356" y="413.89" width="13.501" height="6.621" style="opacity: 0.4; transform-origin: 114.106px 417.2px;" class="animable"></rect></g><rect x="197.462" y="413.89" width="10.374" height="6.621" style="fill: rgb(211, 139, 252); transform-origin: 202.649px 417.2px;" id="eltuo851yqg2m" class="animable"></rect><g id="elgzotxqwzcnn"><rect x="197.462" y="413.89" width="10.374" height="6.621" style="opacity: 0.4; transform-origin: 202.649px 417.2px;" class="animable"></rect></g><rect x="212.812" y="413.89" width="10.374" height="6.621" style="fill: rgb(211, 139, 252); transform-origin: 217.999px 417.2px;" id="el02yzh7z2haob" class="animable"></rect><g id="eludnaqnh3fu"><rect x="212.812" y="413.89" width="10.374" height="6.621" style="opacity: 0.4; transform-origin: 217.999px 417.2px;" class="animable"></rect></g><rect x="228.162" y="413.89" width="10.374" height="6.621" style="fill: rgb(211, 139, 252); transform-origin: 233.349px 417.2px;" id="elx869itk99pk" class="animable"></rect><g id="el6rguac87u1"><rect x="228.162" y="413.89" width="10.374" height="6.621" style="opacity: 0.4; transform-origin: 233.349px 417.2px;" class="animable"></rect></g><rect x="243.511" y="413.89" width="10.374" height="6.621" style="fill: rgb(211, 139, 252); transform-origin: 248.698px 417.2px;" id="elpxiy8nj0wx" class="animable"></rect><g id="elglgeilm4tfi"><rect x="243.511" y="413.89" width="10.374" height="6.621" style="opacity: 0.4; transform-origin: 248.698px 417.2px;" class="animable"></rect></g><rect x="285.103" y="413.89" width="10.374" height="6.621" style="fill: rgb(211, 139, 252); transform-origin: 290.29px 417.2px;" id="el6jahwo3dtrw" class="animable"></rect><g id="el2fij6hd8xlk"><rect x="285.103" y="413.89" width="10.374" height="6.621" style="opacity: 0.4; transform-origin: 290.29px 417.2px;" class="animable"></rect></g><rect x="300.234" y="413.89" width="10.374" height="6.621" style="fill: rgb(211, 139, 252); transform-origin: 305.421px 417.2px;" id="el0n54h2tqrw4g" class="animable"></rect><g id="el311czf4n92y"><rect x="300.234" y="413.89" width="10.374" height="6.621" style="opacity: 0.4; transform-origin: 305.421px 417.2px;" class="animable"></rect></g><rect x="315.365" y="413.89" width="10.374" height="6.621" style="fill: rgb(211, 139, 252); transform-origin: 320.552px 417.2px;" id="elve8o9ldqhg" class="animable"></rect><g id="elhi3qs7ncxw4"><rect x="315.365" y="413.89" width="10.374" height="6.621" style="opacity: 0.4; transform-origin: 320.552px 417.2px;" class="animable"></rect></g><rect x="330.496" y="413.89" width="28.056" height="6.621" style="fill: rgb(211, 139, 252); transform-origin: 344.524px 417.2px;" id="elda7zfeyhkuf" class="animable"></rect><g id="eluzqxip5b2jd"><rect x="330.496" y="413.89" width="28.056" height="6.621" style="opacity: 0.4; transform-origin: 344.524px 417.2px;" class="animable"></rect></g><rect x="258.861" y="413.89" width="20.202" height="6.621" style="fill: rgb(211, 139, 252); transform-origin: 268.962px 417.2px;" id="elx6sjqyj9k5" class="animable"></rect><g id="elo42wti9wal"><rect x="258.861" y="413.89" width="20.202" height="6.621" style="opacity: 0.4; transform-origin: 268.962px 417.2px;" class="animable"></rect></g><rect x="125.596" y="413.89" width="66.398" height="6.621" style="fill: rgb(211, 139, 252); transform-origin: 158.795px 417.2px;" id="eldf3vzp0pkf" class="animable"></rect><g id="el09sjb13m33et"><rect x="125.596" y="413.89" width="66.398" height="6.621" style="opacity: 0.4; transform-origin: 158.795px 417.2px;" class="animable"></rect></g><rect x="41.677" y="419.257" width="322.218" height="13.702" style="fill: rgb(211, 139, 252); transform-origin: 202.786px 426.108px;" id="el1fupgloi0s5" class="animable"></rect><g id="elncoksa5qh8"><rect x="41.677" y="419.257" width="322.218" height="13.702" style="opacity: 0.3; transform-origin: 202.786px 426.108px;" class="animable"></rect></g><g id="el6bgjl1v9v8i"><rect x="42.778" y="428.247" width="320.38" height=".75" style="opacity: 0.2; transform-origin: 202.968px 428.622px;" class="animable"></rect></g></g></g><defs>     <filter id="active" height="200%">         <feMorphology in="SourceAlpha" result="DILATED" operator="dilate" radius="2"></feMorphology>                <feFlood flood-color="#32DFEC" flood-opacity="1" result="PINK"></feFlood>        <feComposite in="PINK" in2="DILATED" operator="in" result="OUTLINE"></feComposite>        <feMerge>            <feMergeNode in="OUTLINE"></feMergeNode>            <feMergeNode in="SourceGraphic"></feMergeNode>        </feMerge>    </filter>    <filter id="hover" height="200%">        <feMorphology in="SourceAlpha" result="DILATED" operator="dilate" radius="2"></feMorphology>                <feFlood flood-color="#ff0000" flood-opacity="0.5" result="PINK"></feFlood>        <feComposite in="PINK" in2="DILATED" operator="in" result="OUTLINE"></feComposite>        <feMerge>            <feMergeNode in="OUTLINE"></feMergeNode>            <feMergeNode in="SourceGraphic"></feMergeNode>        </feMerge>            <feColorMatrix type="matrix" values="0   0   0   0   0                0   1   0   0   0                0   0   0   0   0                0   0   0   1   0 "></feColorMatrix>    </filter></defs></svg>